<svg aria-roledescription="timeline" role="graphics-document document" viewBox="0 -63.33333396911621 2990 754.5523681640625" style="max-width: 100%;" xmlns="http://www.w3.org/2000/svg" width="100%" id="graph-div" height="100%" xmlns:xlink="http://www.w3.org/1999/xlink"><style>@import url("https://cdnjs.cloudflare.com/ajax/libs/font-awesome/6.4.0/css/all.min.css");'</style><style>#graph-div{font-family:"trebuchet ms",verdana,arial,sans-serif;font-size:16px;fill:#333;}#graph-div .error-icon{fill:hsl(220.5882352941, 100%, 98.3333333333%);}#graph-div .error-text{fill:rgb(8.5000000002, 5.7500000001, 0);stroke:rgb(8.5000000002, 5.7500000001, 0);}#graph-div .edge-thickness-normal{stroke-width:2px;}#graph-div .edge-thickness-thick{stroke-width:3.5px;}#graph-div .edge-pattern-solid{stroke-dasharray:0;}#graph-div .edge-pattern-dashed{stroke-dasharray:3;}#graph-div .edge-pattern-dotted{stroke-dasharray:2;}#graph-div .marker{fill:#0b0b0b;stroke:#0b0b0b;}#graph-div .marker.cross{stroke:#0b0b0b;}#graph-div svg{font-family:"trebuchet ms",verdana,arial,sans-serif;font-size:16px;}#graph-div .edge{stroke-width:3;}#graph-div .section--1 rect,#graph-div .section--1 path,#graph-div .section--1 circle,#graph-div .section--1 path{fill:hsl(40.5882352941, 100%, 68.3333333333%);}#graph-div .section--1 text{fill:#333;}#graph-div .node-icon--1{font-size:40px;color:#333;}#graph-div .section-edge--1{stroke:hsl(40.5882352941, 100%, 68.3333333333%);}#graph-div .edge-depth--1{stroke-width:17;}#graph-div .section--1 line{stroke:rgb(0, 52.2500000001, 161.5000000002);stroke-width:3;}#graph-div .lineWrapper line{stroke:#333;}#graph-div .disabled,#graph-div .disabled circle,#graph-div .disabled text{fill:lightgray;}#graph-div .disabled text{fill:#efefef;}#graph-div .section-0 rect,#graph-div .section-0 path,#graph-div .section-0 circle,#graph-div .section-0 path{fill:hsl(-79.4117647059, 100%, 68.3333333333%);}#graph-div .section-0 text{fill:#333;}#graph-div .node-icon-0{font-size:40px;color:#333;}#graph-div .section-edge-0{stroke:hsl(-79.4117647059, 100%, 68.3333333333%);}#graph-div .edge-depth-0{stroke-width:14;}#graph-div .section-0 line{stroke:rgb(52.2500000001, 161.5000000002, 0);stroke-width:3;}#graph-div .lineWrapper line{stroke:#333;}#graph-div .disabled,#graph-div .disabled circle,#graph-div .disabled text{fill:lightgray;}#graph-div .disabled text{fill:#efefef;}#graph-div .section-1 rect,#graph-div .section-1 path,#graph-div .section-1 circle,#graph-div .section-1 path{fill:hsl(220.5882352941, 100%, 73.3333333333%);}#graph-div .section-1 text{fill:#333;}#graph-div .node-icon-1{font-size:40px;color:#333;}#graph-div .section-edge-1{stroke:hsl(220.5882352941, 100%, 73.3333333333%);}#graph-div .edge-depth-1{stroke-width:11;}#graph-div .section-1 line{stroke:rgb(136.0000000002, 92.0000000001, 0);stroke-width:3;}#graph-div .lineWrapper line{stroke:#333;}#graph-div .disabled,#graph-div .disabled circle,#graph-div .disabled text{fill:lightgray;}#graph-div .disabled text{fill:#efefef;}#graph-div .section-2 rect,#graph-div .section-2 path,#graph-div .section-2 circle,#graph-div .section-2 path{fill:hsl(70.5882352941, 100%, 68.3333333333%);}#graph-div .section-2 text{fill:#333;}#graph-div .node-icon-2{font-size:40px;color:#333;}#graph-div .section-edge-2{stroke:hsl(70.5882352941, 100%, 68.3333333333%);}#graph-div .edge-depth-2{stroke-width:8;}#graph-div .section-2 line{stroke:rgb(28.5, 0, 161.5000000002);stroke-width:3;}#graph-div .lineWrapper line{stroke:#333;}#graph-div .disabled,#graph-div .disabled circle,#graph-div .disabled text{fill:lightgray;}#graph-div .disabled text{fill:#efefef;}#graph-div .section-3 rect,#graph-div .section-3 path,#graph-div .section-3 circle,#graph-div .section-3 path{fill:hsl(100.5882352941, 100%, 68.3333333333%);}#graph-div .section-3 text{fill:#333;}#graph-div .node-icon-3{font-size:40px;color:#333;}#graph-div .section-edge-3{stroke:hsl(100.5882352941, 100%, 68.3333333333%);}#graph-div .edge-depth-3{stroke-width:5;}#graph-div .section-3 line{stroke:rgb(109.2500000001, 0, 161.5000000002);stroke-width:3;}#graph-div .lineWrapper line{stroke:#333;}#graph-div .disabled,#graph-div .disabled circle,#graph-div .disabled text{fill:lightgray;}#graph-div .disabled text{fill:#efefef;}#graph-div .section-4 rect,#graph-div .section-4 path,#graph-div .section-4 circle,#graph-div .section-4 path{fill:hsl(130.5882352941, 100%, 68.3333333333%);}#graph-div .section-4 text{fill:#333;}#graph-div .node-icon-4{font-size:40px;color:#333;}#graph-div .section-edge-4{stroke:hsl(130.5882352941, 100%, 68.3333333333%);}#graph-div .edge-depth-4{stroke-width:2;}#graph-div .section-4 line{stroke:rgb(161.5000000002, 0, 133.0000000002);stroke-width:3;}#graph-div .lineWrapper line{stroke:#333;}#graph-div .disabled,#graph-div .disabled circle,#graph-div .disabled text{fill:lightgray;}#graph-div .disabled text{fill:#efefef;}#graph-div .section-5 rect,#graph-div .section-5 path,#graph-div .section-5 circle,#graph-div .section-5 path{fill:hsl(160.5882352941, 100%, 68.3333333333%);}#graph-div .section-5 text{fill:#333;}#graph-div .node-icon-5{font-size:40px;color:#333;}#graph-div .section-edge-5{stroke:hsl(160.5882352941, 100%, 68.3333333333%);}#graph-div .edge-depth-5{stroke-width:-1;}#graph-div .section-5 line{stroke:rgb(161.5000000002, 0, 52.2500000001);stroke-width:3;}#graph-div .lineWrapper line{stroke:#333;}#graph-div .disabled,#graph-div .disabled circle,#graph-div .disabled text{fill:lightgray;}#graph-div .disabled text{fill:#efefef;}#graph-div .section-6 rect,#graph-div .section-6 path,#graph-div .section-6 circle,#graph-div .section-6 path{fill:hsl(190.5882352941, 100%, 68.3333333333%);}#graph-div .section-6 text{fill:#333;}#graph-div .node-icon-6{font-size:40px;color:#333;}#graph-div .section-edge-6{stroke:hsl(190.5882352941, 100%, 68.3333333333%);}#graph-div .edge-depth-6{stroke-width:-4;}#graph-div .section-6 line{stroke:rgb(161.5000000002, 28.5, 0);stroke-width:3;}#graph-div .lineWrapper line{stroke:#333;}#graph-div .disabled,#graph-div .disabled circle,#graph-div .disabled text{fill:lightgray;}#graph-div .disabled text{fill:#efefef;}#graph-div .section-7 rect,#graph-div .section-7 path,#graph-div .section-7 circle,#graph-div .section-7 path{fill:hsl(250.5882352941, 100%, 75%);}#graph-div .section-7 text{fill:#333;}#graph-div .node-icon-7{font-size:40px;color:#333;}#graph-div .section-edge-7{stroke:hsl(250.5882352941, 100%, 75%);}#graph-div .edge-depth-7{stroke-width:-7;}#graph-div .section-7 line{stroke:rgb(105, 127.5, 0);stroke-width:3;}#graph-div .lineWrapper line{stroke:#333;}#graph-div .disabled,#graph-div .disabled circle,#graph-div .disabled text{fill:lightgray;}#graph-div .disabled text{fill:#efefef;}#graph-div .section-8 rect,#graph-div .section-8 path,#graph-div .section-8 circle,#graph-div .section-8 path{fill:hsl(310.5882352941, 100%, 68.3333333333%);}#graph-div .section-8 text{fill:#333;}#graph-div .node-icon-8{font-size:40px;color:#333;}#graph-div .section-edge-8{stroke:hsl(310.5882352941, 100%, 68.3333333333%);}#graph-div .edge-depth-8{stroke-width:-10;}#graph-div .section-8 line{stroke:rgb(0, 161.5000000002, 28.5);stroke-width:3;}#graph-div .lineWrapper line{stroke:#333;}#graph-div .disabled,#graph-div .disabled circle,#graph-div .disabled text{fill:lightgray;}#graph-div .disabled text{fill:#efefef;}#graph-div .section-9 rect,#graph-div .section-9 path,#graph-div .section-9 circle,#graph-div .section-9 path{fill:hsl(340.5882352941, 100%, 68.3333333333%);}#graph-div .section-9 text{fill:#333;}#graph-div .node-icon-9{font-size:40px;color:#333;}#graph-div .section-edge-9{stroke:hsl(340.5882352941, 100%, 68.3333333333%);}#graph-div .edge-depth-9{stroke-width:-13;}#graph-div .section-9 line{stroke:rgb(0, 161.5000000002, 109.2500000001);stroke-width:3;}#graph-div .lineWrapper line{stroke:#333;}#graph-div .disabled,#graph-div .disabled circle,#graph-div .disabled text{fill:lightgray;}#graph-div .disabled text{fill:#efefef;}#graph-div .section-10 rect,#graph-div .section-10 path,#graph-div .section-10 circle,#graph-div .section-10 path{fill:hsl(10.5882352941, 100%, 68.3333333333%);}#graph-div .section-10 text{fill:#333;}#graph-div .node-icon-10{font-size:40px;color:#333;}#graph-div .section-edge-10{stroke:hsl(10.5882352941, 100%, 68.3333333333%);}#graph-div .edge-depth-10{stroke-width:-16;}#graph-div .section-10 line{stroke:rgb(0, 133.0000000002, 161.5000000002);stroke-width:3;}#graph-div .lineWrapper line{stroke:#333;}#graph-div .disabled,#graph-div .disabled circle,#graph-div .disabled text{fill:lightgray;}#graph-div .disabled text{fill:#efefef;}#graph-div .section-root rect,#graph-div .section-root path,#graph-div .section-root circle{fill:hsl(40.5882352941, 100%, 68.3333333333%);}#graph-div .section-root text{fill:#333;}#graph-div .icon-container{height:100%;display:flex;justify-content:center;align-items:center;}#graph-div .edge{fill:none;}#graph-div .eventWrapper{filter:brightness(120%);}#graph-div :root{--mermaid-font-family:"trebuchet ms",verdana,arial,sans-serif;}</style><g></g><g></g><defs><marker orient="auto" markerHeight="4" markerWidth="6" refY="2" refX="5" id="arrowhead"><path d="M 0,0 V 4 L6,2 Z"></path></marker></defs><g transform="translate(100, 50)"><g class="timeline-node section--1"><g><path d="M0 65.70476417541504 v-60.704764175415036 q0,-5 5,-5 h1780 q5,0 5,5 v65.70476417541504 H0 Z" class="node-bkg node-undefined" id="node-undefined"></path><line y2="70.70476417541504" x2="1790" y1="70.70476417541504" x1="0" class="node-line--1"></line></g><g transform="translate(895, 10)"><text text-anchor="middle" dominant-baseline="middle" alignment-baseline="middle" dy="1em"><tspan dy="1em" x="0">Internet   of   copy</tspan></text></g></g></g><g transform="translate(100, 170.70476417541505)" class="taskWrapper"><g class="timeline-node section--1"><g><path d="M0 65.70476417541504 v-60.704764175415036 q0,-5 5,-5 h180 q5,0 5,5 v65.70476417541504 H0 Z" class="node-bkg node-undefined" id="node-undefined"></path><line y2="70.70476417541504" x2="190" y1="70.70476417541504" x1="0" class="node-line--1"></line></g><g transform="translate(95, 10)"><text text-anchor="middle" dominant-baseline="middle" alignment-baseline="middle" dy="1em"><tspan dy="1em" x="0">1970</tspan></text></g></g></g><g class="lineWrapper"><line stroke-dasharray="5,5" marker-end="url(#arrowhead)" stroke="black" stroke-width="2" y2="641.2190715789795" x2="195" y1="241.4095283508301" x1="195"></line></g><g transform="translate(100, 370.70476417541505)" class="eventWrapper"><g class="timeline-node section--1"><g><path d="M0 98.50475769042968 v-93.50475769042968 q0,-5 5,-5 h180 q5,0 5,5 v98.50475769042968 H0 Z" class="node-bkg node-undefined" id="node-undefined"></path><line y2="103.50475769042968" x2="190" y1="103.50475769042968" x1="0" class="node-line--1"></line></g><g transform="translate(95, 10)"><text text-anchor="middle" dominant-baseline="middle" alignment-baseline="middle" dy="1em"><tspan dy="1em" x="0">Naissance   de</tspan><tspan dy="1.1em" x="0">l'ARPANET,   un</tspan><tspan dy="1.1em" x="0">précurseur   de</tspan><tspan dy="1.1em" x="0">l'internet   actuel.</tspan></text></g></g></g><g transform="translate(300, 170.70476417541505)" class="taskWrapper"><g class="timeline-node section--1"><g><path d="M0 65.70476417541504 v-60.704764175415036 q0,-5 5,-5 h180 q5,0 5,5 v65.70476417541504 H0 Z" class="node-bkg node-undefined" id="node-undefined"></path><line y2="70.70476417541504" x2="190" y1="70.70476417541504" x1="0" class="node-line--1"></line></g><g transform="translate(95, 10)"><text text-anchor="middle" dominant-baseline="middle" alignment-baseline="middle" dy="1em"><tspan dy="1em" x="0">1971</tspan></text></g></g></g><g class="lineWrapper"><line stroke-dasharray="5,5" marker-end="url(#arrowhead)" stroke="black" stroke-width="2" y2="641.2190715789795" x2="395" y1="241.4095283508301" x1="395"></line></g><g transform="translate(300, 370.70476417541505)" class="eventWrapper"><g class="timeline-node section--1"><g><path d="M0 151.30476837158204 v-146.30476837158204 q0,-5 5,-5 h180 q5,0 5,5 v151.30476837158204 H0 Z" class="node-bkg node-undefined" id="node-undefined"></path><line y2="156.30476837158204" x2="190" y1="156.30476837158204" x1="0" class="node-line--1"></line></g><g transform="translate(95, 10)"><text text-anchor="middle" dominant-baseline="middle" alignment-baseline="middle" dy="1em"><tspan dy="1em" x="0">Introduction   du   FTP</tspan><tspan dy="1.1em" x="0">(File   Transfer</tspan><tspan dy="1.1em" x="0">Protocol)</tspan><tspan dy="1.1em" x="0">permettant   le</tspan><tspan dy="1.1em" x="0">transfert   de   fichiers</tspan><tspan dy="1.1em" x="0">d'un   système   à   un</tspan><tspan dy="1.1em" x="0">autre.</tspan></text></g></g></g><g transform="translate(500, 170.70476417541505)" class="taskWrapper"><g class="timeline-node section--1"><g><path d="M0 65.70476417541504 v-60.704764175415036 q0,-5 5,-5 h180 q5,0 5,5 v65.70476417541504 H0 Z" class="node-bkg node-undefined" id="node-undefined"></path><line y2="70.70476417541504" x2="190" y1="70.70476417541504" x1="0" class="node-line--1"></line></g><g transform="translate(95, 10)"><text text-anchor="middle" dominant-baseline="middle" alignment-baseline="middle" dy="1em"><tspan dy="1em" x="0">1971</tspan></text></g></g></g><g class="lineWrapper"><line stroke-dasharray="5,5" marker-end="url(#arrowhead)" stroke="black" stroke-width="2" y2="641.2190715789795" x2="595" y1="241.4095283508301" x1="595"></line></g><g transform="translate(500, 370.70476417541505)" class="eventWrapper"><g class="timeline-node section--1"><g><path d="M0 98.50475769042968 v-93.50475769042968 q0,-5 5,-5 h180 q5,0 5,5 v98.50475769042968 H0 Z" class="node-bkg node-undefined" id="node-undefined"></path><line y2="103.50475769042968" x2="190" y1="103.50475769042968" x1="0" class="node-line--1"></line></g><g transform="translate(95, 10)"><text text-anchor="middle" dominant-baseline="middle" alignment-baseline="middle" dy="1em"><tspan dy="1em" x="0">Développement   du</tspan><tspan dy="1.1em" x="0">courrier</tspan><tspan dy="1.1em" x="0">électronique</tspan><tspan dy="1.1em" x="0">(e-mail).</tspan></text></g></g></g><g transform="translate(700, 170.70476417541505)" class="taskWrapper"><g class="timeline-node section--1"><g><path d="M0 65.70476417541504 v-60.704764175415036 q0,-5 5,-5 h180 q5,0 5,5 v65.70476417541504 H0 Z" class="node-bkg node-undefined" id="node-undefined"></path><line y2="70.70476417541504" x2="190" y1="70.70476417541504" x1="0" class="node-line--1"></line></g><g transform="translate(95, 10)"><text text-anchor="middle" dominant-baseline="middle" alignment-baseline="middle" dy="1em"><tspan dy="1em" x="0">1990</tspan></text></g></g></g><g class="lineWrapper"><line stroke-dasharray="5,5" marker-end="url(#arrowhead)" stroke="black" stroke-width="2" y2="641.2190715789795" x2="795" y1="241.4095283508301" x1="795"></line></g><g transform="translate(700, 370.70476417541505)" class="eventWrapper"><g class="timeline-node section--1"><g><path d="M0 80.90475921630859 v-75.90475921630859 q0,-5 5,-5 h180 q5,0 5,5 v80.90475921630859 H0 Z" class="node-bkg node-undefined" id="node-undefined"></path><line y2="85.90475921630859" x2="190" y1="85.90475921630859" x1="0" class="node-line--1"></line></g><g transform="translate(95, 10)"><text text-anchor="middle" dominant-baseline="middle" alignment-baseline="middle" dy="1em"><tspan dy="1em" x="0">Invention   du   World</tspan><tspan dy="1.1em" x="0">Wide   Web   par   Tim</tspan><tspan dy="1.1em" x="0">Berners-Lee.</tspan></text></g></g></g><g transform="translate(900, 170.70476417541505)" class="taskWrapper"><g class="timeline-node section--1"><g><path d="M0 65.70476417541504 v-60.704764175415036 q0,-5 5,-5 h180 q5,0 5,5 v65.70476417541504 H0 Z" class="node-bkg node-undefined" id="node-undefined"></path><line y2="70.70476417541504" x2="190" y1="70.70476417541504" x1="0" class="node-line--1"></line></g><g transform="translate(95, 10)"><text text-anchor="middle" dominant-baseline="middle" alignment-baseline="middle" dy="1em"><tspan dy="1em" x="0">1999</tspan></text></g></g></g><g class="lineWrapper"><line stroke-dasharray="5,5" marker-end="url(#arrowhead)" stroke="black" stroke-width="2" y2="641.2190715789795" x2="995" y1="241.4095283508301" x1="995"></line></g><g transform="translate(900, 370.70476417541505)" class="eventWrapper"><g class="timeline-node section--1"><g><path d="M0 116.10475616455078 v-111.10475616455078 q0,-5 5,-5 h180 q5,0 5,5 v116.10475616455078 H0 Z" class="node-bkg node-undefined" id="node-undefined"></path><line y2="121.10475616455078" x2="190" y1="121.10475616455078" x1="0" class="node-line--1"></line></g><g transform="translate(95, 10)"><text text-anchor="middle" dominant-baseline="middle" alignment-baseline="middle" dy="1em"><tspan dy="1em" x="0">Popularisation   de   la</tspan><tspan dy="1.1em" x="0">technologie</tspan><tspan dy="1.1em" x="0">Peer-to-Peer   (P2P)</tspan><tspan dy="1.1em" x="0">avec   le   service</tspan><tspan dy="1.1em" x="0">Napster.</tspan></text></g></g></g><g transform="translate(1100, 170.70476417541505)" class="taskWrapper"><g class="timeline-node section--1"><g><path d="M0 65.70476417541504 v-60.704764175415036 q0,-5 5,-5 h180 q5,0 5,5 v65.70476417541504 H0 Z" class="node-bkg node-undefined" id="node-undefined"></path><line y2="70.70476417541504" x2="190" y1="70.70476417541504" x1="0" class="node-line--1"></line></g><g transform="translate(95, 10)"><text text-anchor="middle" dominant-baseline="middle" alignment-baseline="middle" dy="1em"><tspan dy="1em" x="0">2004</tspan></text></g></g></g><g class="lineWrapper"><line stroke-dasharray="5,5" marker-end="url(#arrowhead)" stroke="black" stroke-width="2" y2="641.2190715789795" x2="1195" y1="241.4095283508301" x1="1195"></line></g><g transform="translate(1100, 370.70476417541505)" class="eventWrapper"><g class="timeline-node section--1"><g><path d="M0 116.10475616455078 v-111.10475616455078 q0,-5 5,-5 h180 q5,0 5,5 v116.10475616455078 H0 Z" class="node-bkg node-undefined" id="node-undefined"></path><line y2="121.10475616455078" x2="190" y1="121.10475616455078" x1="0" class="node-line--1"></line></g><g transform="translate(95, 10)"><text text-anchor="middle" dominant-baseline="middle" alignment-baseline="middle" dy="1em"><tspan dy="1em" x="0">Lancement   de</tspan><tspan dy="1.1em" x="0">Facebook,   qui</tspan><tspan dy="1.1em" x="0">marque   le   début   de</tspan><tspan dy="1.1em" x="0">l'ère   des   médias</tspan><tspan dy="1.1em" x="0">sociaux.</tspan></text></g></g></g><g transform="translate(1300, 170.70476417541505)" class="taskWrapper"><g class="timeline-node section--1"><g><path d="M0 65.70476417541504 v-60.704764175415036 q0,-5 5,-5 h180 q5,0 5,5 v65.70476417541504 H0 Z" class="node-bkg node-undefined" id="node-undefined"></path><line y2="70.70476417541504" x2="190" y1="70.70476417541504" x1="0" class="node-line--1"></line></g><g transform="translate(95, 10)"><text text-anchor="middle" dominant-baseline="middle" alignment-baseline="middle" dy="1em"><tspan dy="1em" x="0">2005</tspan></text></g></g></g><g class="lineWrapper"><line stroke-dasharray="5,5" marker-end="url(#arrowhead)" stroke="black" stroke-width="2" y2="641.2190715789795" x2="1395" y1="241.4095283508301" x1="1395"></line></g><g transform="translate(1300, 370.70476417541505)" class="eventWrapper"><g class="timeline-node section--1"><g><path d="M0 98.50475769042968 v-93.50475769042968 q0,-5 5,-5 h180 q5,0 5,5 v98.50475769042968 H0 Z" class="node-bkg node-undefined" id="node-undefined"></path><line y2="103.50475769042968" x2="190" y1="103.50475769042968" x1="0" class="node-line--1"></line></g><g transform="translate(95, 10)"><text text-anchor="middle" dominant-baseline="middle" alignment-baseline="middle" dy="1em"><tspan dy="1em" x="0">Lancement   de</tspan><tspan dy="1.1em" x="0">YouTube,   plateforme</tspan><tspan dy="1.1em" x="0">de   partage   de</tspan><tspan dy="1.1em" x="0">vidéos.</tspan></text></g></g></g><g transform="translate(1500, 170.70476417541505)" class="taskWrapper"><g class="timeline-node section--1"><g><path d="M0 65.70476417541504 v-60.704764175415036 q0,-5 5,-5 h180 q5,0 5,5 v65.70476417541504 H0 Z" class="node-bkg node-undefined" id="node-undefined"></path><line y2="70.70476417541504" x2="190" y1="70.70476417541504" x1="0" class="node-line--1"></line></g><g transform="translate(95, 10)"><text text-anchor="middle" dominant-baseline="middle" alignment-baseline="middle" dy="1em"><tspan dy="1em" x="0">2007</tspan></text></g></g></g><g class="lineWrapper"><line stroke-dasharray="5,5" marker-end="url(#arrowhead)" stroke="black" stroke-width="2" y2="641.2190715789795" x2="1595" y1="241.4095283508301" x1="1595"></line></g><g transform="translate(1500, 370.70476417541505)" class="eventWrapper"><g class="timeline-node section--1"><g><path d="M0 116.10475616455078 v-111.10475616455078 q0,-5 5,-5 h180 q5,0 5,5 v116.10475616455078 H0 Z" class="node-bkg node-undefined" id="node-undefined"></path><line y2="121.10475616455078" x2="190" y1="121.10475616455078" x1="0" class="node-line--1"></line></g><g transform="translate(95, 10)"><text text-anchor="middle" dominant-baseline="middle" alignment-baseline="middle" dy="1em"><tspan dy="1em" x="0">Introduction   de</tspan><tspan dy="1.1em" x="0">l'iPhone   d'Apple,   qui</tspan><tspan dy="1.1em" x="0">a   révolutionné</tspan><tspan dy="1.1em" x="0">l'utilisation   mobile</tspan><tspan dy="1.1em" x="0">de   l'Internet.</tspan></text></g></g></g><g transform="translate(1700, 170.70476417541505)" class="taskWrapper"><g class="timeline-node section--1"><g><path d="M0 65.70476417541504 v-60.704764175415036 q0,-5 5,-5 h180 q5,0 5,5 v65.70476417541504 H0 Z" class="node-bkg node-undefined" id="node-undefined"></path><line y2="70.70476417541504" x2="190" y1="70.70476417541504" x1="0" class="node-line--1"></line></g><g transform="translate(95, 10)"><text text-anchor="middle" dominant-baseline="middle" alignment-baseline="middle" dy="1em"><tspan dy="1em" x="0">2008</tspan></text></g></g></g><g class="lineWrapper"><line stroke-dasharray="5,5" marker-end="url(#arrowhead)" stroke="black" stroke-width="2" y2="641.2190715789795" x2="1795" y1="241.4095283508301" x1="1795"></line></g><g transform="translate(1700, 370.70476417541505)" class="eventWrapper"><g class="timeline-node section--1"><g><path d="M0 151.30476837158204 v-146.30476837158204 q0,-5 5,-5 h180 q5,0 5,5 v151.30476837158204 H0 Z" class="node-bkg node-undefined" id="node-undefined"></path><line y2="156.30476837158204" x2="190" y1="156.30476837158204" x1="0" class="node-line--1"></line></g><g transform="translate(95, 10)"><text text-anchor="middle" dominant-baseline="middle" alignment-baseline="middle" dy="1em"><tspan dy="1em" x="0">Publication   du   livre</tspan><tspan dy="1.1em" x="0">blanc   sur   le   Bitcoin</tspan><tspan dy="1.1em" x="0">par   Satoshi</tspan><tspan dy="1.1em" x="0">Nakamoto   jetant   les</tspan><tspan dy="1.1em" x="0">bases   de   la</tspan><tspan dy="1.1em" x="0">blockchain   et   des</tspan><tspan dy="1.1em" x="0">cryptomonnaies.</tspan></text></g></g></g><g transform="translate(1900, 50)"><g class="timeline-node section-0"><g><path d="M0 65.70476417541504 v-60.704764175415036 q0,-5 5,-5 h980 q5,0 5,5 v65.70476417541504 H0 Z" class="node-bkg node-undefined" id="node-undefined"></path><line y2="70.70476417541504" x2="990" y1="70.70476417541504" x1="0" class="node-line-0"></line></g><g transform="translate(495, 10)"><text text-anchor="middle" dominant-baseline="middle" alignment-baseline="middle" dy="1em"><tspan dy="1em" x="0">Internet   of   Value</tspan></text></g></g></g><g transform="translate(1900, 170.70476417541505)" class="taskWrapper"><g class="timeline-node section-0"><g><path d="M0 65.70476417541504 v-60.704764175415036 q0,-5 5,-5 h180 q5,0 5,5 v65.70476417541504 H0 Z" class="node-bkg node-undefined" id="node-undefined"></path><line y2="70.70476417541504" x2="190" y1="70.70476417541504" x1="0" class="node-line-0"></line></g><g transform="translate(95, 10)"><text text-anchor="middle" dominant-baseline="middle" alignment-baseline="middle" dy="1em"><tspan dy="1em" x="0">2010</tspan></text></g></g></g><g class="lineWrapper"><line stroke-dasharray="5,5" marker-end="url(#arrowhead)" stroke="black" stroke-width="2" y2="641.2190715789795" x2="1995" y1="241.4095283508301" x1="1995"></line></g><g transform="translate(1900, 370.70476417541505)" class="eventWrapper"><g class="timeline-node section-0"><g><path d="M0 98.50475769042968 v-93.50475769042968 q0,-5 5,-5 h180 q5,0 5,5 v98.50475769042968 H0 Z" class="node-bkg node-undefined" id="node-undefined"></path><line y2="103.50475769042968" x2="190" y1="103.50475769042968" x1="0" class="node-line-0"></line></g><g transform="translate(95, 10)"><text text-anchor="middle" dominant-baseline="middle" alignment-baseline="middle" dy="1em"><tspan dy="1em" x="0">Lancement</tspan><tspan dy="1.1em" x="0">d'Instagram,</tspan><tspan dy="1.1em" x="0">plateforme   de</tspan><tspan dy="1.1em" x="0">partage   de   photos.</tspan></text></g></g></g><g transform="translate(2100, 170.70476417541505)" class="taskWrapper"><g class="timeline-node section-0"><g><path d="M0 65.70476417541504 v-60.704764175415036 q0,-5 5,-5 h180 q5,0 5,5 v65.70476417541504 H0 Z" class="node-bkg node-undefined" id="node-undefined"></path><line y2="70.70476417541504" x2="190" y1="70.70476417541504" x1="0" class="node-line-0"></line></g><g transform="translate(95, 10)"><text text-anchor="middle" dominant-baseline="middle" alignment-baseline="middle" dy="1em"><tspan dy="1em" x="0">2013</tspan></text></g></g></g><g class="lineWrapper"><line stroke-dasharray="5,5" marker-end="url(#arrowhead)" stroke="black" stroke-width="2" y2="641.2190715789795" x2="2195" y1="241.4095283508301" x1="2195"></line></g><g transform="translate(2100, 370.70476417541505)" class="eventWrapper"><g class="timeline-node section-0"><g><path d="M0 151.30476837158204 v-146.30476837158204 q0,-5 5,-5 h180 q5,0 5,5 v151.30476837158204 H0 Z" class="node-bkg node-undefined" id="node-undefined"></path><line y2="156.30476837158204" x2="190" y1="156.30476837158204" x1="0" class="node-line-0"></line></g><g transform="translate(95, 10)"><text text-anchor="middle" dominant-baseline="middle" alignment-baseline="middle" dy="1em"><tspan dy="1em" x="0">Introduction</tspan><tspan dy="1.1em" x="0">d'Ethereum,</tspan><tspan dy="1.1em" x="0">plateforme   de</tspan><tspan dy="1.1em" x="0">blockchain   qui   a</tspan><tspan dy="1.1em" x="0">popularisé   les</tspan><tspan dy="1.1em" x="0">contrats   intelligents</tspan><tspan dy="1.1em" x="0">(smart   contracts).</tspan></text></g></g></g><g transform="translate(2300, 170.70476417541505)" class="taskWrapper"><g class="timeline-node section-0"><g><path d="M0 65.70476417541504 v-60.704764175415036 q0,-5 5,-5 h180 q5,0 5,5 v65.70476417541504 H0 Z" class="node-bkg node-undefined" id="node-undefined"></path><line y2="70.70476417541504" x2="190" y1="70.70476417541504" x1="0" class="node-line-0"></line></g><g transform="translate(95, 10)"><text text-anchor="middle" dominant-baseline="middle" alignment-baseline="middle" dy="1em"><tspan dy="1em" x="0">2016</tspan></text></g></g></g><g class="lineWrapper"><line stroke-dasharray="5,5" marker-end="url(#arrowhead)" stroke="black" stroke-width="2" y2="641.2190715789795" x2="2395" y1="241.4095283508301" x1="2395"></line></g><g transform="translate(2300, 370.70476417541505)" class="eventWrapper"><g class="timeline-node section-0"><g><path d="M0 168.90476684570314 v-163.90476684570314 q0,-5 5,-5 h180 q5,0 5,5 v168.90476684570314 H0 Z" class="node-bkg node-undefined" id="node-undefined"></path><line y2="173.90476684570314" x2="190" y1="173.90476684570314" x1="0" class="node-line-0"></line></g><g transform="translate(95, 10)"><text text-anchor="middle" dominant-baseline="middle" alignment-baseline="middle" dy="1em"><tspan dy="1em" x="0">L'Intelligence</tspan><tspan dy="1.1em" x="0">Artificielle   (IA)   et</tspan><tspan dy="1.1em" x="0">l'apprentissage</tspan><tspan dy="1.1em" x="0">automatique</tspan><tspan dy="1.1em" x="0">commencent   à   jouer</tspan><tspan dy="1.1em" x="0">un   rôle   majeur   dans</tspan><tspan dy="1.1em" x="0">l'analyse   des</tspan><tspan dy="1.1em" x="0">données   Internet.</tspan></text></g></g></g><g transform="translate(2500, 170.70476417541505)" class="taskWrapper"><g class="timeline-node section-0"><g><path d="M0 65.70476417541504 v-60.704764175415036 q0,-5 5,-5 h180 q5,0 5,5 v65.70476417541504 H0 Z" class="node-bkg node-undefined" id="node-undefined"></path><line y2="70.70476417541504" x2="190" y1="70.70476417541504" x1="0" class="node-line-0"></line></g><g transform="translate(95, 10)"><text text-anchor="middle" dominant-baseline="middle" alignment-baseline="middle" dy="1em"><tspan dy="1em" x="0">2021</tspan></text></g></g></g><g class="lineWrapper"><line stroke-dasharray="5,5" marker-end="url(#arrowhead)" stroke="black" stroke-width="2" y2="641.2190715789795" x2="2595" y1="241.4095283508301" x1="2595"></line></g><g transform="translate(2500, 370.70476417541505)" class="eventWrapper"><g class="timeline-node section-0"><g><path d="M0 204.1047790527344 v-199.1047790527344 q0,-5 5,-5 h180 q5,0 5,5 v204.1047790527344 H0 Z" class="node-bkg node-undefined" id="node-undefined"></path><line y2="209.1047790527344" x2="190" y1="209.1047790527344" x1="0" class="node-line-0"></line></g><g transform="translate(95, 10)"><text text-anchor="middle" dominant-baseline="middle" alignment-baseline="middle" dy="1em"><tspan dy="1em" x="0">Les   NFTs</tspan><tspan dy="1.1em" x="0">(Non-Fungible</tspan><tspan dy="1.1em" x="0">Tokens)   deviennent</tspan><tspan dy="1.1em" x="0">populaires,</tspan><tspan dy="1.1em" x="0">permettant   la</tspan><tspan dy="1.1em" x="0">propriété   numérique</tspan><tspan dy="1.1em" x="0">vérifiable   de   l'art   et</tspan><tspan dy="1.1em" x="0">d'autres   éléments</tspan><tspan dy="1.1em" x="0">uniques   sur</tspan><tspan dy="1.1em" x="0">l'Internet.</tspan></text></g></g></g><g transform="translate(2700, 170.70476417541505)" class="taskWrapper"><g class="timeline-node section-0"><g><path d="M0 65.70476417541504 v-60.704764175415036 q0,-5 5,-5 h180 q5,0 5,5 v65.70476417541504 H0 Z" class="node-bkg node-undefined" id="node-undefined"></path><line y2="70.70476417541504" x2="190" y1="70.70476417541504" x1="0" class="node-line-0"></line></g><g transform="translate(95, 10)"><text text-anchor="middle" dominant-baseline="middle" alignment-baseline="middle" dy="1em"><tspan dy="1em" x="0">2023</tspan></text></g></g></g><g class="lineWrapper"><line stroke-dasharray="5,5" marker-end="url(#arrowhead)" stroke="black" stroke-width="2" y2="641.2190715789795" x2="2795" y1="241.4095283508301" x1="2795"></line></g><g transform="translate(2700, 370.70476417541505)" class="eventWrapper"><g class="timeline-node section-0"><g><path d="M0 186.50477294921876 v-181.50477294921876 q0,-5 5,-5 h180 q5,0 5,5 v186.50477294921876 H0 Z" class="node-bkg node-undefined" id="node-undefined"></path><line y2="191.50477294921876" x2="190" y1="191.50477294921876" x1="0" class="node-line-0"></line></g><g transform="translate(95, 10)"><text text-anchor="middle" dominant-baseline="middle" alignment-baseline="middle" dy="1em"><tspan dy="1em" x="0">L'Internet   continue</tspan><tspan dy="1.1em" x="0">d'évoluer,   avec   des</tspan><tspan dy="1.1em" x="0">développements</tspan><tspan dy="1.1em" x="0">dans   des   domaines</tspan><tspan dy="1.1em" x="0">tels   que   la   5G,</tspan><tspan dy="1.1em" x="0">l'Internet   des   objets</tspan><tspan dy="1.1em" x="0">(IoT),   l'IA,   la</tspan><tspan dy="1.1em" x="0">blockchain   et   plus</tspan><tspan dy="1.1em" x="0">encore.</tspan></text></g></g></g><text y="20" font-weight="bold" font-size="4ex" x="1345">History of Internet</text><g class="lineWrapper"><line marker-end="url(#arrowhead)" stroke="black" stroke-width="4" y2="291.4095283508301" x2="2940" y1="291.4095283508301" x1="50"></line></g></svg>