<svg xmlns="http://www.w3.org/2000/svg" viewBox="0 0 248.94471 190.81862">
  <g>
    <g>
      <path d="M21.59019,74.4171H1.66632A1.66589,1.66589,0,0,0,0,76.0855v41.68307A1.66526,1.66526,0,0,0,1.66632,119.434H21.59019a1.669,1.669,0,0,0,1.67111-1.66543V76.0855A1.66958,1.66958,0,0,0,21.59019,74.4171Z" style="fill: #8c8c8c"/>
      <g>
        <path d="M11.63,108.57866a1.63065,1.63065,0,1,0,1.63067,1.63066A1.62955,1.62955,0,0,0,11.63,108.57866Zm-.08509,2.75918a1.13239,1.13239,0,1,1,.39689-2.21792,1.13248,1.13248,0,0,1-.39689,2.21792Z" style="fill: #3d3d3d"/>
        <g>
          <path d="M5.42633,94.48361H8.85006a.24725.24725,0,0,1,0,.49449H5.42633a.24725.24725,0,0,1,0-.49449Z" style="fill: #3d3d3d;opacity: 0.8"/>
          <rect x="12.24653" y="94.36702" width="1.94774" height="0.72797" style="fill: #3d3d3d;opacity: 0.8"/>
          <rect x="15.28247" y="94.36702" width="1.94774" height="0.72797" style="fill: #3d3d3d;opacity: 0.8"/>
          <rect x="18.27762" y="94.36702" width="1.94774" height="0.72797" style="fill: #3d3d3d;opacity: 0.8"/>
          <path d="M3.897,94.73084a.4449.4449,0,1,1-.44447-.44413A.44454.44454,0,0,1,3.897,94.73084Z" style="fill: #3d3d3d;opacity: 0.8"/>
          <rect x="2.94663" y="82.89612" width="17.27873" height="3.92454" style="fill: #3d3d3d;opacity: 0.8"/>
          <rect x="2.94663" y="77.18328" width="17.27873" height="3.92454" style="fill: #3d3d3d;opacity: 0.8"/>
          <rect x="2.94663" y="88.27148" width="17.27873" height="3.92485" style="fill: #3d3d3d;opacity: 0.8"/>
        </g>
      </g>
    </g>
    <g>
      <path d="M247.2736,74.4171H227.34973a1.66589,1.66589,0,0,0-1.66632,1.6684v41.68307a1.66526,1.66526,0,0,0,1.66632,1.66543H247.2736a1.669,1.669,0,0,0,1.67111-1.66543V76.0855A1.66958,1.66958,0,0,0,247.2736,74.4171Z" style="fill: #8c8c8c"/>
      <g>
        <path d="M237.31345,108.57866a1.63065,1.63065,0,1,0,1.63067,1.63066A1.62955,1.62955,0,0,0,237.31345,108.57866Zm-.08509,2.75918a1.13239,1.13239,0,1,1,.39689-2.21792,1.13248,1.13248,0,0,1-.39689,2.21792Z" style="fill: #3d3d3d"/>
        <g>
          <path d="M231.10974,94.48361h3.42373a.24725.24725,0,0,1,0,.49449h-3.42373a.24725.24725,0,0,1,0-.49449Z" style="fill: #3d3d3d;opacity: 0.8"/>
          <rect x="237.92994" y="94.36702" width="1.94774" height="0.72797" style="fill: #3d3d3d;opacity: 0.8"/>
          <rect x="240.96588" y="94.36702" width="1.94774" height="0.72797" style="fill: #3d3d3d;opacity: 0.8"/>
          <rect x="243.96103" y="94.36702" width="1.94774" height="0.72797" style="fill: #3d3d3d;opacity: 0.8"/>
          <path d="M229.58039,94.73084a.4449.4449,0,1,1-.44447-.44413A.44455.44455,0,0,1,229.58039,94.73084Z" style="fill: #3d3d3d;opacity: 0.8"/>
          <rect x="228.63004" y="82.89612" width="17.27873" height="3.92454" style="fill: #3d3d3d;opacity: 0.8"/>
          <rect x="228.63004" y="77.18328" width="17.27873" height="3.92454" style="fill: #3d3d3d;opacity: 0.8"/>
          <rect x="228.63004" y="88.27148" width="17.27873" height="3.92485" style="fill: #3d3d3d;opacity: 0.8"/>
        </g>
      </g>
    </g>
    <g>
      <path d="M181.36607,145.80171H161.4422a1.6659,1.6659,0,0,0-1.66632,1.66841v41.68307a1.66526,1.66526,0,0,0,1.66632,1.66543h19.92387a1.669,1.669,0,0,0,1.67111-1.66543V147.47012A1.6696,1.6696,0,0,0,181.36607,145.80171Z" style="fill: #8c8c8c"/>
      <g>
        <path d="M171.40592,179.96328a1.63064,1.63064,0,1,0,1.63067,1.63065A1.62954,1.62954,0,0,0,171.40592,179.96328Zm-.08509,2.75918a1.1324,1.1324,0,1,1,.39689-2.21793,1.13248,1.13248,0,0,1-.39689,2.21793Z" style="fill: #3d3d3d"/>
        <g>
          <path d="M165.20221,165.86823h3.42373a.24725.24725,0,0,1,0,.49449h-3.42373a.24725.24725,0,0,1,0-.49449Z" style="fill: #3d3d3d;opacity: 0.8"/>
          <rect x="172.02241" y="165.75164" width="1.94774" height="0.72797" style="fill: #3d3d3d;opacity: 0.8"/>
          <rect x="175.05835" y="165.75164" width="1.94774" height="0.72797" style="fill: #3d3d3d;opacity: 0.8"/>
          <rect x="178.0535" y="165.75164" width="1.94774" height="0.72797" style="fill: #3d3d3d;opacity: 0.8"/>
          <path d="M163.67286,166.11546a.4449.4449,0,1,1-.44447-.44413A.44455.44455,0,0,1,163.67286,166.11546Z" style="fill: #3d3d3d;opacity: 0.8"/>
          <rect x="162.72251" y="154.28074" width="17.27873" height="3.92454" style="fill: #3d3d3d;opacity: 0.8"/>
          <rect x="162.72251" y="148.56789" width="17.27873" height="3.92454" style="fill: #3d3d3d;opacity: 0.8"/>
          <rect x="162.72251" y="159.6561" width="17.27873" height="3.92485" style="fill: #3d3d3d;opacity: 0.8"/>
        </g>
      </g>
    </g>
    <g>
      <path d="M87.49772,145.80171H67.57385a1.6659,1.6659,0,0,0-1.66632,1.66841v41.68307a1.66526,1.66526,0,0,0,1.66632,1.66543H87.49772a1.669,1.669,0,0,0,1.67111-1.66543V147.47012A1.66959,1.66959,0,0,0,87.49772,145.80171Z" style="fill: #8c8c8c"/>
      <g>
        <path d="M77.53757,179.96328a1.63064,1.63064,0,1,0,1.63067,1.63065A1.62954,1.62954,0,0,0,77.53757,179.96328Zm-.08509,2.75918a1.1324,1.1324,0,1,1,.39689-2.21793,1.13248,1.13248,0,0,1-.39689,2.21793Z" style="fill: #3d3d3d"/>
        <g>
          <path d="M71.33387,165.86823h3.42372a.24725.24725,0,0,1,0,.49449H71.33387a.24725.24725,0,0,1,0-.49449Z" style="fill: #3d3d3d;opacity: 0.8"/>
          <rect x="78.15406" y="165.75164" width="1.94774" height="0.72797" style="fill: #3d3d3d;opacity: 0.8"/>
          <rect x="81.19" y="165.75164" width="1.94774" height="0.72797" style="fill: #3d3d3d;opacity: 0.8"/>
          <rect x="84.18515" y="165.75164" width="1.94774" height="0.72797" style="fill: #3d3d3d;opacity: 0.8"/>
          <path d="M69.80451,166.11546a.4449.4449,0,1,1-.44447-.44413A.44454.44454,0,0,1,69.80451,166.11546Z" style="fill: #3d3d3d;opacity: 0.8"/>
          <rect x="68.85416" y="154.28074" width="17.27873" height="3.92454" style="fill: #3d3d3d;opacity: 0.8"/>
          <rect x="68.85416" y="148.56789" width="17.27873" height="3.92454" style="fill: #3d3d3d;opacity: 0.8"/>
          <rect x="68.85416" y="159.6561" width="17.27873" height="3.92485" style="fill: #3d3d3d;opacity: 0.8"/>
        </g>
      </g>
    </g>
    <g>
      <path d="M181.36607,0H161.4422a1.6659,1.6659,0,0,0-1.66632,1.66841V43.35148a1.66526,1.66526,0,0,0,1.66632,1.66543h19.92387a1.669,1.669,0,0,0,1.67111-1.66543V1.66841A1.6696,1.6696,0,0,0,181.36607,0Z" style="fill: #8c8c8c"/>
      <g>
        <path d="M171.40592,34.16157a1.63064,1.63064,0,1,0,1.63067,1.63065A1.62954,1.62954,0,0,0,171.40592,34.16157Zm-.08509,2.75918a1.1324,1.1324,0,1,1,.39689-2.21793,1.13248,1.13248,0,0,1-.39689,2.21793Z" style="fill: #3d3d3d"/>
        <g>
          <path d="M165.20221,20.06652h3.42373a.24725.24725,0,0,1,0,.49449h-3.42373a.24725.24725,0,0,1,0-.49449Z" style="fill: #3d3d3d;opacity: 0.8"/>
          <rect x="172.02241" y="19.94993" width="1.94774" height="0.72797" style="fill: #3d3d3d;opacity: 0.8"/>
          <rect x="175.05835" y="19.94993" width="1.94774" height="0.72797" style="fill: #3d3d3d;opacity: 0.8"/>
          <rect x="178.0535" y="19.94993" width="1.94774" height="0.72797" style="fill: #3d3d3d;opacity: 0.8"/>
          <path d="M163.67286,20.31375a.4449.4449,0,1,1-.44447-.44414A.44455.44455,0,0,1,163.67286,20.31375Z" style="fill: #3d3d3d;opacity: 0.8"/>
          <rect x="162.72251" y="8.47903" width="17.27873" height="3.92454" style="fill: #3d3d3d;opacity: 0.8"/>
          <rect x="162.72251" y="2.76618" width="17.27873" height="3.92454" style="fill: #3d3d3d;opacity: 0.8"/>
          <rect x="162.72251" y="13.85439" width="17.27873" height="3.92485" style="fill: #3d3d3d;opacity: 0.8"/>
        </g>
      </g>
    </g>
    <g>
      <path d="M87.49772,0H67.57385a1.6659,1.6659,0,0,0-1.66632,1.66841V43.35148a1.66526,1.66526,0,0,0,1.66632,1.66543H87.49772a1.669,1.669,0,0,0,1.67111-1.66543V1.66841A1.66959,1.66959,0,0,0,87.49772,0Z" style="fill: #8c8c8c"/>
      <g>
        <path d="M77.53757,34.16157a1.63064,1.63064,0,1,0,1.63067,1.63065A1.62954,1.62954,0,0,0,77.53757,34.16157Zm-.08509,2.75918a1.1324,1.1324,0,1,1,.39689-2.21793,1.13248,1.13248,0,0,1-.39689,2.21793Z" style="fill: #3d3d3d"/>
        <g>
          <path d="M71.33387,20.06652h3.42372a.24725.24725,0,0,1,0,.49449H71.33387a.24725.24725,0,0,1,0-.49449Z" style="fill: #3d3d3d;opacity: 0.8"/>
          <rect x="78.15406" y="19.94993" width="1.94774" height="0.72797" style="fill: #3d3d3d;opacity: 0.8"/>
          <rect x="81.19" y="19.94993" width="1.94774" height="0.72797" style="fill: #3d3d3d;opacity: 0.8"/>
          <rect x="84.18515" y="19.94993" width="1.94774" height="0.72797" style="fill: #3d3d3d;opacity: 0.8"/>
          <path d="M69.80451,20.31375a.4449.4449,0,1,1-.44447-.44414A.44454.44454,0,0,1,69.80451,20.31375Z" style="fill: #3d3d3d;opacity: 0.8"/>
          <rect x="68.85416" y="8.47903" width="17.27873" height="3.92454" style="fill: #3d3d3d;opacity: 0.8"/>
          <rect x="68.85416" y="2.76618" width="17.27873" height="3.92454" style="fill: #3d3d3d;opacity: 0.8"/>
          <rect x="68.85416" y="13.85439" width="17.27873" height="3.92485" style="fill: #3d3d3d;opacity: 0.8"/>
        </g>
      </g>
    </g>
    <g>
      <g>
        <line x1="189.94503" y1="168.31016" x2="232.26828" y2="125.98691" style="fill: #3d3d3d"/>
        <g>
          <line x1="192.48221" y1="165.77298" x2="229.73111" y2="128.52409" style="fill: none;stroke: #59c6f2;stroke-miterlimit: 10;stroke-width: 0.5px"/>
          <polygon points="194.761 167.02 189.945 168.31 191.235 163.494 194.761 167.02" style="fill: #59c6f2"/>
          <polygon points="230.978 130.803 232.268 125.987 227.452 127.277 230.978 130.803" style="fill: #59c6f2"/>
        </g>
      </g>
      <g>
        <g>
          <line x1="217.80733" y1="95.40931" x2="31.13739" y2="95.40931" style="fill: none;stroke: #59c6f2;stroke-miterlimit: 10;stroke-width: 0.5px"/>
          <polygon points="217.078 92.916 221.395 95.409 217.078 97.902 217.078 92.916" style="fill: #59c6f2"/>
          <polygon points="31.867 92.916 27.549 95.409 31.867 97.902 31.867 92.916" style="fill: #59c6f2"/>
        </g>
        <g>
          <line x1="150.81129" y1="22.50845" x2="98.13341" y2="22.50845" style="fill: none;stroke: #59c6f2;stroke-miterlimit: 10;stroke-width: 0.5px"/>
          <polygon points="150.082 20.015 154.399 22.508 150.082 25.002 150.082 20.015" style="fill: #59c6f2"/>
          <polygon points="98.863 20.015 94.545 22.508 98.863 25.002 98.863 20.015" style="fill: #59c6f2"/>
        </g>
        <g>
          <line x1="150.81129" y1="168.31017" x2="98.13341" y2="168.31017" style="fill: none;stroke: #59c6f2;stroke-miterlimit: 10;stroke-width: 0.5px"/>
          <polygon points="150.082 165.817 154.399 168.31 150.082 170.803 150.082 165.817" style="fill: #59c6f2"/>
          <polygon points="98.863 165.817 94.545 168.31 98.863 170.803 98.863 165.817" style="fill: #59c6f2"/>
        </g>
        <g>
          <line x1="58.99968" y1="168.31016" x2="16.67643" y2="125.98691" style="fill: #3d3d3d"/>
          <g>
            <line x1="56.4625" y1="165.77298" x2="19.21361" y2="128.52409" style="fill: none;stroke: #59c6f2;stroke-miterlimit: 10;stroke-width: 0.5px"/>
            <polygon points="57.71 163.494 59 168.31 54.184 167.02 57.71 163.494" style="fill: #59c6f2"/>
            <polygon points="21.492 127.277 16.676 125.987 17.967 130.803 21.492 127.277" style="fill: #59c6f2"/>
          </g>
        </g>
        <g>
          <line x1="189.94503" y1="22.50845" x2="232.26828" y2="64.83171" style="fill: #3d3d3d"/>
          <g>
            <line x1="192.48221" y1="25.04563" x2="229.73111" y2="62.29453" style="fill: none;stroke: #59c6f2;stroke-miterlimit: 10;stroke-width: 0.5px"/>
            <polygon points="191.235 27.324 189.945 22.508 194.761 23.799 191.235 27.324" style="fill: #59c6f2"/>
            <polygon points="227.452 63.542 232.268 64.832 230.978 60.016 227.452 63.542" style="fill: #59c6f2"/>
          </g>
        </g>
        <g>
          <line x1="58.99968" y1="22.50845" x2="16.67643" y2="64.83171" style="fill: #3d3d3d"/>
          <g>
            <line x1="56.4625" y1="25.04563" x2="19.21361" y2="62.29453" style="fill: none;stroke: #59c6f2;stroke-miterlimit: 10;stroke-width: 0.5px"/>
            <polygon points="54.184 23.799 59 22.508 57.71 27.324 54.184 23.799" style="fill: #59c6f2"/>
            <polygon points="17.967 60.016 16.676 64.832 21.492 63.542 17.967 60.016" style="fill: #59c6f2"/>
          </g>
        </g>
        <g>
          <line x1="77.53758" y1="141.70926" x2="77.53758" y2="49.10935" style="fill: #3d3d3d"/>
          <g>
            <line x1="77.53758" y1="138.12115" x2="77.53758" y2="52.69747" style="fill: none;stroke: #59c6f2;stroke-miterlimit: 10;stroke-width: 0.5px"/>
            <polygon points="80.031 137.392 77.538 141.709 75.044 137.392 80.031 137.392" style="fill: #59c6f2"/>
            <polygon points="80.031 53.427 77.538 49.109 75.044 53.427 80.031 53.427" style="fill: #59c6f2"/>
          </g>
        </g>
        <g>
          <line x1="94.14758" y1="138.7713" x2="154.95097" y2="52.04731" style="fill: none;stroke: #59c6f2;stroke-miterlimit: 10;stroke-width: 0.5px"/>
          <polygon points="96.608 139.605 92.088 141.709 92.525 136.743 96.608 139.605" style="fill: #59c6f2"/>
          <polygon points="156.574 54.076 157.011 49.109 152.491 51.213 156.574 54.076" style="fill: #59c6f2"/>
        </g>
        <g>
          <line x1="171.40653" y1="141.70926" x2="171.40653" y2="49.10935" style="fill: #3d3d3d"/>
          <g>
            <line x1="171.40652" y1="138.12115" x2="171.40652" y2="52.69747" style="fill: none;stroke: #59c6f2;stroke-miterlimit: 10;stroke-width: 0.5px"/>
            <polygon points="173.9 137.392 171.407 141.709 168.913 137.392 173.9 137.392" style="fill: #59c6f2"/>
            <polygon points="173.9 53.427 171.407 49.109 168.913 53.427 173.9 53.427" style="fill: #59c6f2"/>
          </g>
        </g>
        <g>
          <line x1="94.68481" y1="51.67558" x2="154.41374" y2="139.14304" style="fill: none;stroke: #59c6f2;stroke-miterlimit: 10;stroke-width: 0.5px"/>
          <polygon points="93.037 53.684 92.661 48.712 97.155 50.872 93.037 53.684" style="fill: #59c6f2"/>
          <polygon points="151.943 139.947 156.437 142.106 156.061 137.135 151.943 139.947" style="fill: #59c6f2"/>
        </g>
        <g>
          <g>
            <line x1="152.6427" y1="45.17617" x2="30.39551" y2="74.26213" style="fill: none;stroke: #59c6f2;stroke-miterlimit: 10;stroke-width: 0.5px"/>
            <polygon points="151.356 42.92 156.133 44.346 152.51 47.77 151.356 42.92" style="fill: #59c6f2"/>
            <polygon points="30.528 71.668 26.905 75.093 31.682 76.519 30.528 71.668" style="fill: #59c6f2"/>
          </g>
          <g>
            <line x1="218.54926" y1="74.26619" x2="96.304" y2="45.1721" style="fill: none;stroke: #59c6f2;stroke-miterlimit: 10;stroke-width: 0.5px"/>
            <polygon points="218.417 71.672 222.04 75.097 217.262 76.523 218.417 71.672" style="fill: #59c6f2"/>
            <polygon points="97.591 42.916 92.813 44.341 96.436 47.766 97.591 42.916" style="fill: #59c6f2"/>
          </g>
        </g>
        <g>
          <g>
            <line x1="96.30202" y1="145.64244" x2="218.54921" y2="116.55649" style="fill: none;stroke: #59c6f2;stroke-miterlimit: 10;stroke-width: 0.5px"/>
            <polygon points="97.589 147.899 92.811 146.473 96.435 143.048 97.589 147.899" style="fill: #59c6f2"/>
            <polygon points="218.417 119.151 222.04 115.726 217.262 114.3 218.417 119.151" style="fill: #59c6f2"/>
          </g>
          <g>
            <line x1="30.39545" y1="116.55242" x2="152.6407" y2="145.64651" style="fill: none;stroke: #59c6f2;stroke-miterlimit: 10;stroke-width: 0.5px"/>
            <polygon points="30.528 119.147 26.905 115.722 31.682 114.296 30.528 119.147" style="fill: #59c6f2"/>
            <polygon points="151.354 147.903 156.131 146.477 152.508 143.052 151.354 147.903" style="fill: #59c6f2"/>
          </g>
        </g>
      </g>
    </g>
  </g>
</svg>
